<?xml version="1.0" encoding="UTF-8"?>
<svg width="186px" height="219px" viewBox="0 0 186 219" version="1.1" xmlns="http://www.w3.org/2000/svg" xmlns:xlink="http://www.w3.org/1999/xlink">
    <!-- Generator: Sketch 48.1 (47250) - http://www.bohemiancoding.com/sketch -->
    <title>911Character</title>
    <desc>Created with Sketch.</desc>
    <defs>
        <linearGradient x1="96.9689004%" y1="98.0878799%" x2="-55.9136413%" y2="-55.4486062%" id="linearGradient-1">
            <stop stop-color="#022776" offset="0%"></stop>
            <stop stop-color="#022E8E" offset="25.2521183%"></stop>
            <stop stop-color="#011141" offset="100%"></stop>
        </linearGradient>
    </defs>
    <g id="01---Home" stroke="none" stroke-width="1" fill="none" fill-rule="evenodd" transform="translate(-623.000000, -207.000000)">
        <g id="01">
            <g id="Character" transform="translate(623.000000, 207.000000)">
                <path d="M186,212.2505 C186,215.9785 144.362756,219.0005 93.0003142,219.0005 C41.6369473,219.0005 -0.000297014925,215.9785 -0.000297014925,212.2505 C-0.000297014925,208.5225 41.6369473,205.5005 93.0003142,205.5005 C144.362756,205.5005 186,208.5225 186,212.2505" id="Shadow" fill="#011141"></path>
                <g id="Group" transform="translate(62.000000, 1.000000)">
                    <polygon id="Balo" fill="#011141" points="47.9190317 132.106681 76.3258462 141 92 79.7377873 63.5921991 58 44 64.9162521"></polygon>
                    <polygon id="Hand-Left" fill="#AFA100" points="20.6095884 47.3409315 26.463798 19 5 57.1139719 36.2201592 62 45 47.3409315"></polygon>
                    <path d="M0,115.296042 C0,115.296042 30.9990245,66.5306944 44.5626219,48 L62,54.8267361 L52.3121342,127 L0,115.296042 Z" id="Arm" fill="#FFFFFF"></path>
                    <path d="M38.7983205,78 C40.5635497,78 42,79.4364503 42,81.2020709 L42,88.096641 C42,88.5956803 41.5952889,89 41.0962496,89 C40.5976018,89 40.1928907,88.5956803 40.1928907,88.096641 L40.1928907,81.2020709 C40.1928907,80.4329633 39.5670367,79.8071093 38.7983205,79.8071093 C38.0288215,79.8071093 37.403359,80.4329633 37.403359,81.2020709 C37.403359,81.264304 37.3967051,81.3253629 37.3845716,81.3840734 C37.2882864,83.0631939 35.9050669,84.4025761 34.2032451,84.4025761 C33.7042058,84.4025761 33.2987119,83.9982565 33.2987119,83.4992172 C33.2987119,83.0001779 33.7026402,82.5958582 34.2016795,82.5958582 L34.2032451,82.5958582 C34.9715699,82.5958582 35.5958582,81.9711785 35.5958582,81.2032451 C35.5958582,80.4333547 34.9703957,79.8071093 34.2016795,79.8071093 L32.8067179,79.8071093 L32.8067179,88.096641 C32.8067179,88.5956803 32.4020068,89 31.9037504,89 C31.4047111,89 31,88.5956803 31,88.096641 L31,78.9037504 C31,78.4043197 31.4047111,78 31.9037504,78 L34.2016795,78 C35.1042556,78 35.9172004,78.3788785 36.4996086,78.9816396 C37.0820168,78.3788785 37.895353,78 38.7983205,78 Z M40.0588235,85.4475761 L40.0588235,85.8837314 C39.9471246,87.6189774 38.5487016,89 36.8282995,89 L34.4957395,89 C34.0235034,89 33.6391159,88.6327328 33.5882353,88.1623372 C33.5906203,88.1276894 33.5981729,88.094672 33.5981729,88.0592089 L33.5981729,87.8639581 C33.6860216,87.4379933 34.0545088,87.1184178 34.4957395,87.1184178 L36.8282995,87.1184178 C37.6097945,87.1184178 38.2454052,86.4666306 38.2454052,85.6656538 C38.2454052,84.864677 37.6097945,84.2132974 36.8282995,84.2132974 C36.7118305,84.2132974 36.6013241,84.1888401 36.4987677,84.1480779 C37.098603,83.7575762 37.5839567,83.1966886 37.8912281,82.5294118 C39.0960661,82.960268 39.9713724,84.0893803 40.0588235,85.4475761 Z" id="Combined-Shape" fill="url(#linearGradient-1)" transform="translate(36.500000, 83.500000) rotate(14.000000) translate(-36.500000, -83.500000) "></path>
                    <polygon id="Face" fill="#F4CB9A" points="46.5436769 57.607677 34 40.6303067 53.8833158 8 84 25.9443546 68.386594 61"></polygon>
                    <g id="Cap" transform="translate(49.000000, 0.000000)">
                        <path d="M29.879768,25.2762914 L27,31.8698968 L49.079188,46 L51,42.2322254 C51,42.2322254 29.879768,22.4504605 29.879768,25.2762914" id="Cap-1" fill="#011141"></path>
                        <polygon id="Cap-2" fill="#0795FF" points="0 16.3367902 32.0516457 35 40 16.8204222 30.960043 2.97358899 9.1524429 0"></polygon>
                    </g>
                    <g id="Camera" transform="translate(20.000000, 4.000000)">
                        <polygon id="Fill-22" fill="#0E133A" points="37.1877891 48 0 24.7877369 12.8102427 4 50 27.2112727"></polygon>
                        <polygon id="Fill-24" fill="#FFFFFF" points="45.5756689 25 28 13.8691309 36.4243311 0 54 11.1308691"></polygon>
                        <path d="M28.2714566,32.5606351 C24.9242036,37.9572497 17.8359032,39.6187164 12.440143,36.2715351 C7.04244299,32.9253236 5.38094072,25.8371748 8.72916364,20.4405602 C12.0764166,15.0429756 19.164717,13.3815089 24.5614471,16.7277203 C29.9572073,20.0749017 31.6187096,27.1640204 28.2714566,32.5606351" id="Fill-26" fill="#FFFFFF"></path>
                        <path d="M25.7222954,30.9792712 C23.2494266,34.9681899 18.0095415,36.1964076 14.0213053,33.7227304 C10.0310405,31.2490532 8.8037348,26.0106182 11.2776178,22.0216996 C13.7515009,18.0317668 18.991386,16.803549 22.9806366,19.2772263 C26.9688728,21.7509035 28.1961784,26.9903526 25.7222954,30.9792712" id="Fill-28" fill="#0E133A"></path>
                        <polygon id="Fill-30" fill="#0E133A" points="45.3187279 22 31 13.415202 37.6812721 3 52 11.584798"></polygon>
                    </g>
                    <polygon id="Hand-Right" fill="#F8E71C" points="55.3744076 104.321394 57 43 72.4100451 100.186539"></polygon>
                    <polygon id="Balo-Back" fill="#011141" points="12.5813599 95.6677856 43 52.84551 37.9743645 46"></polygon>
                </g>
                <polygon id="Legs" fill="#0795FF" points="37.527848 206.122751 12 159.101799 62.072943 116 115.091179 127.755485 174 212 85.6362738 133.598208 32.618038 161.060882"></polygon>
                <polygon id="Foot-Left" fill="#2749AD" points="36 207.057939 5 210 27.7165503 192"></polygon>
                <polygon id="Foot-Right" fill="#2749AD" points="178 214 153 214 162.608234 197"></polygon>
                <g id="Light" transform="translate(5.000000, 0.000000)" fill="#FFFFFF">
                    <polygon id="Path-2" style="mix-blend-mode: overlay;" points="78.4247197 27.4424214 88.9741521 7.25438057 119.003527 28.1659864 89.9164183 11.2149142"></polygon>
                    <polygon id="Path-3" style="mix-blend-mode: overlay;" points="113.506431 3.96471329 114.923097 0.528802054 137.293675 3.1484111 145.755416 17.7232691 136.668746 4.48371579 115.3357 1.37105644"></polygon>
                    <polygon id="Path-4" style="mix-blend-mode: overlay;" points="77.2355097 29.9397641 78.5689722 30.7724385 62.2282361 57.9661198"></polygon>
                    <polygon id="Path-5" style="mix-blend-mode: overlay;" points="77.7802031 48.412361 94.6119514 47.7969792 93.9530354 49.2166369"></polygon>
                    <polygon id="Path-6" style="mix-blend-mode: overlay;" points="87.9945637 62.1897695 70.2270508 95.7988281 86 61.918482"></polygon>
                    <polygon id="Path-7" style="mix-blend-mode: overlay;" points="124.737802 62.2453091 150.204383 80.2030284 133.471662 141.915815 147.195612 81.306815"></polygon>
                    <polygon id="Path-8" style="mix-blend-mode: overlay;" points="56.7789577 116.184198 9.07819654 158.782929 32.5274679 206.089088 5.29519492 158.782929"></polygon>
                    <polygon id="Path-9" style="mix-blend-mode: overlay;" points="73.4188886 137.473508 80.8097711 131.959246 155.764503 200.450251 80.8097711 135.402637"></polygon>
                    <polygon id="Path-10" style="mix-blend-mode: overlay;" points="0 209.694599 23.1330001 192.586558 21.9964835 191"></polygon>
                </g>
            </g>
        </g>
    </g>
</svg>